<?xml version='1.0' encoding='utf-8'?>
<svg xmlns="http://www.w3.org/2000/svg" viewBox="0 0 100.272 73.0453" width="100.272" height="73.0453">
  <g transform="translate(-5.62713,-246.498)">
    <path d="M0 0 C2.84408554 1.16810656 3.7349225 1.09464306 6.69140625 0.0390625 C7.63886719 -0.42757812 8.58632813 -0.89421875 9.5625 -1.375 C15.81096746 -4.41021214 20.26773703 -5.2079309 27.125 -5.25 C28.35089844 -5.2809375 28.35089844 -5.2809375 29.6015625 -5.3125 C35.47352473 -5.34966432 40.6379098 -4.48722593 46 -2 C51.89866849 3.89866849 51.04346956 17.3426423 51.1875 25.1875 C51.08729457 35.79675037 49.83013654 46.07646442 46 56 C41.91416558 56.78923993 38.21386648 57.03528442 34.0625 56.875 C24.63823193 56.79969192 15.55533061 58.6163135 6.75 61.9375 C1.72589065 63.54322852 -1.37611888 62.13539408 -6.09765625 60.12890625 C-14.99298537 56.66894647 -24.41151641 56.82851608 -33.78515625 57.3203125 C-37 57 -37 57 -39.328125 55.34765625 C-48.37286958 42.64697519 -45.5801084 20.75842517 -43.6328125 6.27734375 C-43.0429514 3.22244583 -42.4763327 0.73685596 -41 -2 C-29.75967179 -9.50208694 -10.89539894 -5.529279 0 0 Z M-34 5 C-35.28747351 11.79760327 -35.18407181 18.47748886 -35.1875 25.375 C-35.19974609 26.6640625 -35.21199219 27.953125 -35.22460938 29.28125 C-35.2347636 35.8747278 -35.01628608 41.70408695 -33 48 C-31.76765625 48.04898438 -30.5353125 48.09796875 -29.265625 48.1484375 C-27.5937329 48.22357872 -25.9218588 48.29912139 -24.25 48.375 C-23.44433594 48.4059375 -22.63867188 48.436875 -21.80859375 48.46875 C-14.97693546 48.79150551 -8.87708664 49.85381889 -2 51 C-2 37.14 -2 23.28 -2 9 C-9.66542246 5.16728877 -13.31801008 3.83409577 -21.4375 3.875 C-22.5831543 3.86919922 -22.5831543 3.86919922 -23.75195312 3.86328125 C-24.49251953 3.86457031 -25.23308594 3.86585938 -25.99609375 3.8671875 C-27.00434204 3.86887939 -27.00434204 3.86887939 -28.03295898 3.87060547 C-30.12167459 4.00800391 -31.98830925 4.43469441 -34 5 Z M8.40934753 9.32221985 C6.65990575 11.4048706 6.65808876 12.32855784 6.7512207 15.01245117 C6.77146805 15.81305466 6.79171539 16.61365814 6.81257629 17.43852234 C6.84993393 18.29798965 6.88729156 19.15745697 6.92578125 20.04296875 C6.95222214 20.9265657 6.97866302 21.81016266 7.00590515 22.72053528 C7.09369764 25.54354198 7.2028358 28.36526649 7.3125 31.1875 C7.37575576 33.10086547 7.43762192 35.01427742 7.49804688 36.92773438 C7.64924325 41.61918118 7.81958744 46.30958952 8 51 C12.93717099 50.30726426 12.93717099 50.30726426 17.8515625 49.47265625 C22.01823131 48.84713897 26.16951361 48.6420731 30.375 48.4375 C31.20644531 48.39431641 32.03789063 48.35113281 32.89453125 48.30664062 C34.92953228 48.20138195 36.96474703 48.10026928 39 48 C41.19980824 40.03547688 41.26592254 32.48023868 41.1875 24.25 C41.18685547 22.94933594 41.18621094 21.64867187 41.18554688 20.30859375 C41.17960459 12.59565511 41.17960459 12.59565511 40 5 C29.62052392 2.52582256 16.96564018 2.20985545 8.40934753 9.32221985 Z " fill="#D8D8D8" transform="translate(54,256)"/>
  </g>
</svg>
