<?xml version='1.0' encoding='utf-8'?>
<svg xmlns="http://www.w3.org/2000/svg" viewBox="0 0 86.291 86.6836" width="86.291" height="86.6836">
  <g transform="translate(-36.709,-2982.32)">
    <path d="M0 0 C1.87109375 1.328125 1.87109375 1.328125 3 3 C2.875 6.0625 2.875 6.0625 2 9 C-1.38023749 11.25349166 -3.71027418 11.61164831 -7.6875 12.3125 C-17.16344432 14.27404975 -23.4942012 17.94776925 -29 26 C-33.49197737 34.21189613 -34.2250404 43.07705142 -31.875 52.0625 C-29.30506628 59.76034797 -24.99194291 65.06409429 -17.92578125 69.04296875 C-12.59801799 71.69064015 -7.22997405 72.51818671 -1.390625 73.33984375 C1 74 1 74 3 77 C2.875 80.0625 2.875 80.0625 2 83 C-1.4494554 85.54213419 -4.39179308 85.0551631 -8.5 84.5 C-20.87687499 82.44574689 -30.22699596 76.88538347 -38 67 C-44.6740381 55.96269055 -46.29096737 45.73717379 -45 33 C-42.0256714 21.28217094 -34.28400201 10.99842979 -23.921875 4.74609375 C-21.97573955 3.73960003 -20.01956737 2.84787744 -18 2 C-17.0925 1.5875 -16.185 1.175 -15.25 0.75 C-10.2498712 -0.40387588 -5.09427355 -0.6836471 0 0 Z " fill="#EAEAEA" transform="translate(83,2983)"/>
    <path d="M0 0 C2.11230469 1.6105957 2.11230469 1.6105957 4.171875 3.67578125 C5.29142578 4.79436523 5.29142578 4.79436523 6.43359375 5.93554688 C7.19800781 6.71994141 7.96242187 7.50433594 8.75 8.3125 C9.91982422 9.47168945 9.91982422 9.47168945 11.11328125 10.65429688 C17.56895303 17.18294582 17.56895303 17.18294582 18 21 C16.20190751 24.0546745 13.46293702 26.46808452 11 29 C10.01114511 30.06196614 9.02290114 31.12450136 8.03515625 32.1875 C6.98335985 33.29318042 5.92997164 34.39734878 4.875 35.5 C4.37266846 36.04076172 3.87033691 36.58152344 3.3527832 37.13867188 C1.0314529 39.50997658 -0.41839175 40.91172754 -3.75390625 41.41796875 C-6 41 -6 41 -7.8125 39.8125 C-9 38 -9 38 -9.5625 35.6875 C-8.9206856 32.62105343 -8.17606269 31.9441969 -5.96484375 29.83203125 C-5.41304443 29.29940674 -4.86124512 28.76678223 -4.29272461 28.21801758 C-3.86612549 27.81607178 -3.43952637 27.41412598 -3 27 C-4.25135742 26.9906543 -5.50271484 26.98130859 -6.79199219 26.97167969 C-11.4365595 26.93179518 -16.08046335 26.86604059 -20.72460938 26.79248047 C-22.73428827 26.76426193 -24.74407834 26.74305179 -26.75390625 26.72900391 C-29.64380849 26.70758665 -32.5323729 26.66094297 -35.421875 26.609375 C-36.31992859 26.60814636 -37.21798218 26.60691772 -38.14324951 26.60565186 C-44.35028346 26.46004319 -44.35028346 26.46004319 -47.60253906 24.15722656 C-49 22 -49 22 -48.9375 18.875 C-48 16 -48 16 -45 14 C-43.0827179 13.7215271 -43.0827179 13.7215271 -40.89575195 13.68115234 C-40.07512772 13.66128265 -39.25450348 13.64141296 -38.40901184 13.62094116 C-37.0870002 13.60361435 -37.0870002 13.60361435 -35.73828125 13.5859375 C-34.83248825 13.56657135 -33.92669525 13.5472052 -32.99345398 13.5272522 C-30.09989849 13.46746458 -27.2063032 13.42107432 -24.3125 13.375 C-22.35089409 13.33681946 -20.38930494 13.29776769 -18.42773438 13.2578125 C-13.6186256 13.16176368 -8.80943834 13.07772957 -4 13 C-5.22009766 11.59814453 -5.22009766 11.59814453 -6.46484375 10.16796875 C-8.32749623 8.02783713 -8.96534023 7.16559668 -9.5625 4.3125 C-9 2 -9 2 -7.3125 0.125 C-4.3251718 -1.3282948 -3.14550582 -0.96190954 0 0 Z " fill="#F0F0F0" transform="translate(105,3005)"/>
    <path d="M0 0 C1.29111191 0.0001133 1.29111191 0.0001133 2.60830688 0.00022888 C3.53855682 0.00539017 4.46880676 0.01055145 5.42724609 0.01586914 C6.37884613 0.01728409 7.33044617 0.01869904 8.31088257 0.02015686 C11.35751456 0.02576527 14.40407372 0.0383192 17.45068359 0.05102539 C19.51318253 0.05603931 21.57568262 0.0606024 23.63818359 0.06469727 C28.70071176 0.07573744 33.76318532 0.09300772 38.82568359 0.11352539 C39.32068359 1.10352539 39.32068359 1.10352539 39.82568359 2.11352539 C38.50850342 2.13858154 37.19132324 2.1636377 35.83422852 2.18945312 C30.95326798 2.28353421 26.07244952 2.38375331 21.19165039 2.48583984 C19.0780774 2.52918603 16.96446945 2.57086133 14.85083008 2.61083984 C11.81499696 2.66854988 8.77933971 2.7322424 5.74365234 2.79711914 C4.79668991 2.81383163 3.84972748 2.83054413 2.87406921 2.84776306 C1.99338272 2.86770828 1.11269623 2.8876535 0.20532227 2.90820312 C-0.56967117 2.92374741 -1.34466461 2.93929169 -2.1431427 2.95530701 C-4.37764134 3.04707916 -4.37764134 3.04707916 -7.17431641 4.11352539 C-6.84431641 3.12352539 -6.51431641 2.13352539 -6.17431641 1.11352539 C-3.86611133 -0.04057715 -2.56647364 -0.00750431 0 0 Z " fill="#8D8D8D" transform="translate(64.17431640625,3018.886474609375)"/>
    <path d="M0 0 C3.21524305 1.40844718 5.32183868 3.10344786 7.75 5.625 C8.67039062 6.57246094 8.67039062 6.57246094 9.609375 7.5390625 C10.29773438 8.26222656 10.29773438 8.26222656 11 9 C8 9 8 9 5.95703125 7.28515625 C5.24933594 6.55167969 4.54164062 5.81820312 3.8125 5.0625 C3.09707031 4.33160156 2.38164063 3.60070313 1.64453125 2.84765625 C0 1 0 1 0 0 Z " fill="#000000" transform="translate(105,3003)"/>
    <path d="M0 0 C0 0.99 0 1.98 0 3 C-2 4.6875 -2 4.6875 -4 6 C-2.84826645 3.53199953 -1.95216435 1.95216435 0 0 Z " fill="#000000" transform="translate(122,3029)"/>
    <path d="M0 0 C0 3 0 3 0 3 Z " fill="#000000" transform="translate(85,3066)"/>
    <path d="M0 0 C0.99 0.495 0.99 0.495 2 1 C1.67 1.66 1.34 2.32 1 3 C0.67 2.01 0.34 1.02 0 0 Z " fill="#000000" transform="translate(84,3055)"/>
    <path d="M0 0 C0.99 0.495 0.99 0.495 2 1 C1.67 1.66 1.34 2.32 1 3 C0.67 2.01 0.34 1.02 0 0 Z " fill="#000000" transform="translate(96,3014)"/>
    <path d="M0 0 C0.33 0.66 0.66 1.32 1 2 C0.34 1.67 -0.32 1.34 -1 1 C-0.67 0.67 -0.34 0.34 0 0 Z " fill="#000000" transform="translate(56,3019)"/>
    <path d="M0 0 C2 1 2 1 2 1 Z " fill="#000000" transform="translate(63,3049)"/>
    <path d="M0 0 C2 1 2 1 2 1 Z " fill="#000000" transform="translate(105,3046)"/>
    <path d="M0 0 C2 1 2 1 2 1 Z " fill="#000000" transform="translate(48,2993)"/>
    <path d="M0 0 C2 1 2 1 2 1 Z " fill="#000000" transform="translate(53,2989)"/>
  </g>
</svg>
