<?xml version='1.0' encoding='utf-8'?>
<svg xmlns="http://www.w3.org/2000/svg" viewBox="0 0 107 60" width="107" height="60">
  <g transform="translate(-17,-21)">
    <path d="M0 0 C4.29 0 8.58 0 13 0 C13 5 13 5 11 8 C10.835 8.825 10.67 9.65 10.5 10.5 C10 13 10 13 8 16 C7.5359375 17.6396875 7.5359375 17.6396875 7.0625 19.3125 C6.04416552 22.84671965 4.63851622 25.72296755 3 29 C2.30643577 31.32548007 1.63850788 33.65880445 1 36 C-0.08717933 39.05769188 -0.69879802 40.69879802 -3 43 C-3.33 43.825 -3.66 44.65 -4 45.5 C-5.1692984 48.42324601 -6.7921889 49.7921889 -9 52 C-9.33 52.99 -9.66 53.98 -10 55 C-11.485 55.495 -11.485 55.495 -13 56 C-13.59554687 56.50917969 -14.19109375 57.01835938 -14.8046875 57.54296875 C-17.70146968 59.46556618 -19.67748739 59.36755856 -23.125 59.3125 C-24.17945312 59.30863281 -25.23390625 59.30476563 -26.3203125 59.30078125 C-29 59 -29 59 -31 57 C-31.99 56.505 -31.99 56.505 -33 56 C-34.35432675 54.68799596 -35.68733482 53.35368596 -37 52 C-37.66 51.34 -38.32 50.68 -39 50 C-39.33 49.01 -39.66 48.02 -40 47 C-40.66 46.38125 -41.32 45.7625 -42 45.125 C-44.32306098 42.65674771 -44.50707849 41.28614338 -45 38 C-45.63073728 36.64929918 -46.30728765 35.31998933 -47 34 C-48.18905597 31.64660285 -49.37647894 29.29242428 -50.5625 26.9375 C-50.87896484 26.31294922 -51.19542969 25.68839844 -51.52148438 25.04492188 C-52.85837373 22.3853352 -54.05711769 19.82864693 -55 17 C-55.99 16.34 -56.98 15.68 -58 15 C-58 14.34 -58 13.68 -58 13 C-61.23318592 14.5088201 -63.35302722 15.70605444 -65 19 C-65.66 19.99 -66.32 20.98 -67 22 C-67.70491267 24.32206525 -68.37212429 26.65593068 -69 29 C-70.13175469 32.39526408 -71.31315919 35.71217348 -73 38.875 C-74.15078866 41.17256924 -74.15078866 41.17256924 -75 44.5 C-75.80593274 47.32076459 -76.70955462 49.41910923 -78 52 C-78.69730806 54.3243602 -79.36912152 56.65673706 -80 59 C-84.62 59 -89.24 59 -94 59 C-93.16410058 53.98460351 -92.33078681 49.57839945 -90 45.0625 C-88.8402733 42.82142913 -88.8402733 42.82142913 -88 39.5 C-87.19406726 36.67923541 -86.29044538 34.58089077 -85 32 C-84.30643577 29.67451993 -83.63850788 27.34119555 -83 25 C-81.99290115 21.97870344 -80.6522445 19.70968098 -79 17 C-78.649375 16.29875 -78.29875 15.5975 -77.9375 14.875 C-76.60670984 12.21341967 -75.10262717 10.10262717 -73 8 C-72.67 7.01 -72.34 6.02 -72 5 C-71.01 4.67 -70.02 4.34 -69 4 C-68.08734375 3.23623047 -68.08734375 3.23623047 -67.15625 2.45703125 C-64.43171124 0.61599328 -62.76044852 0.62927771 -59.5 0.6875 C-58.09234375 0.69330078 -58.09234375 0.69330078 -56.65625 0.69921875 C-53.16115156 1.09498725 -51.00355251 1.92991362 -48.5859375 4.5078125 C-48.18632813 5.04148437 -47.78671875 5.57515625 -47.375 6.125 C-46.59125 7.07375 -45.8075 8.0225 -45 9 C-44.34 9 -43.68 9 -43 9 C-42.17988688 10.55851755 -41.36923787 12.12201716 -40.5625 13.6875 C-40.11003906 14.55761719 -39.65757813 15.42773438 -39.19140625 16.32421875 C-38.03344182 18.92489297 -37.53446269 21.21989576 -37 24 C-36.11618908 26.0228868 -36.11618908 26.0228868 -35 28 C-34.14457647 29.68686322 -33.29046535 31.37439246 -32.4375 33.0625 C-32.00308594 33.91972656 -31.56867188 34.77695312 -31.12109375 35.66015625 C-29.95316797 38.0977435 -29.13681119 40.53484197 -28.375 43.125 C-27.01463632 45.41900719 -27.01463632 45.41900719 -23.375 45.75 C-22.26125 45.8325 -21.1475 45.915 -20 46 C-17.64702575 43.11225887 -16.33674527 40.45981128 -15 37 C-14.34121393 35.70429628 -13.67381325 34.412953 -13 33.125 C-11.15765062 29.51535993 -10.07364625 25.91113992 -9 22 C-8.01 20.515 -8.01 20.515 -7 19 C-6.29508733 16.67793475 -5.62787571 14.34406932 -5 12 C-4 9 -4 9 -2 6 C-1.34 4.02 -0.68 2.04 0 0 Z " fill="#7B91AE" transform="translate(111,21)"/>
    <path d="M0 0 C2.5 1.125 2.5 1.125 4 2 C4.08159574 6.16138263 3.98248524 9.9472484 3 14 C2.01 14 1.02 14 0 14 C-0.66 14.66 -1.32 15.32 -2 16 C-5.95007553 14.93651813 -9.32326162 13.83836919 -13 12 C-13 8.7 -13 5.4 -13 2 C-12.01 1.67 -11.02 1.34 -10 1 C-10 0.34 -10 -0.32 -10 -1 C-6.67894143 -2.66052929 -3.38268092 -1.049567 0 0 Z " fill="#7D94B2" transform="translate(55,65)"/>
    <path d="M0 0 C4.29 0 8.58 0 13 0 C13 1.65 13 3.3 13 5 C7.06 4.01 7.06 4.01 1 3 C0.67 2.01 0.34 1.02 0 0 Z " fill="#505C70" transform="translate(111,21)"/>
    <path d="" fill="#000000" transform="translate(0,0)"/>
    <path d="" fill="#000000" transform="translate(0,0)"/>
    <path d="" fill="#000000" transform="translate(0,0)"/>
    <path d="" fill="#000000" transform="translate(0,0)"/>
    <path d="" fill="#000000" transform="translate(0,0)"/>
    <path d="" fill="#000000" transform="translate(0,0)"/>
    <path d="" fill="#000000" transform="translate(0,0)"/>
    <path d="" fill="#000000" transform="translate(0,0)"/>
    <path d="" fill="#000000" transform="translate(0,0)"/>
    <path d="" fill="#000000" transform="translate(0,0)"/>
    <path d="" fill="#000000" transform="translate(0,0)"/>
    <path d="" fill="#000000" transform="translate(0,0)"/>
    <path d="" fill="#000000" transform="translate(0,0)"/>
    <path d="" fill="#000000" transform="translate(0,0)"/>
    <path d="" fill="#000000" transform="translate(0,0)"/>
    <path d="" fill="#000000" transform="translate(0,0)"/>
    <path d="" fill="#000000" transform="translate(0,0)"/>
    <path d="" fill="#000000" transform="translate(0,0)"/>
    <path d="" fill="#000000" transform="translate(0,0)"/>
    <path d="" fill="#000000" transform="translate(0,0)"/>
    <path d="" fill="#000000" transform="translate(0,0)"/>
    <path d="" fill="#000000" transform="translate(0,0)"/>
    <path d="" fill="#000000" transform="translate(0,0)"/>
    <path d="" fill="#000000" transform="translate(0,0)"/>
    <path d="" fill="#000000" transform="translate(0,0)"/>
    <path d="" fill="#000000" transform="translate(0,0)"/>
    <path d="" fill="#000000" transform="translate(0,0)"/>
    <path d="" fill="#000000" transform="translate(0,0)"/>
    <path d="" fill="#000000" transform="translate(0,0)"/>
    <path d="" fill="#000000" transform="translate(0,0)"/>
    <path d="" fill="#000000" transform="translate(0,0)"/>
    <path d="" fill="#000000" transform="translate(0,0)"/>
    <path d="" fill="#000000" transform="translate(0,0)"/>
    <path d="" fill="#000000" transform="translate(0,0)"/>
    <path d="" fill="#000000" transform="translate(0,0)"/>
    <path d="" fill="#000000" transform="translate(0,0)"/>
    <path d="" fill="#000000" transform="translate(0,0)"/>
    <path d="" fill="#000000" transform="translate(0,0)"/>
    <path d="" fill="#000000" transform="translate(0,0)"/>
    <path d="" fill="#000000" transform="translate(0,0)"/>
    <path d="" fill="#000000" transform="translate(0,0)"/>
    <path d="" fill="#000000" transform="translate(0,0)"/>
    <path d="" fill="#000000" transform="translate(0,0)"/>
    <path d="" fill="#000000" transform="translate(0,0)"/>
    <path d="" fill="#000000" transform="translate(0,0)"/>
    <path d="" fill="#000000" transform="translate(0,0)"/>
    <path d="" fill="#000000" transform="translate(0,0)"/>
    <path d="" fill="#000000" transform="translate(0,0)"/>
    <path d="" fill="#000000" transform="translate(0,0)"/>
    <path d="" fill="#000000" transform="translate(0,0)"/>
    <path d="" fill="#000000" transform="translate(0,0)"/>
    <path d="" fill="#000000" transform="translate(0,0)"/>
    <path d="" fill="#000000" transform="translate(0,0)"/>
    <path d="" fill="#000000" transform="translate(0,0)"/>
    <path d="" fill="#000000" transform="translate(0,0)"/>
    <path d="" fill="#000000" transform="translate(0,0)"/>
    <path d="" fill="#000000" transform="translate(0,0)"/>
    <path d="" fill="#000000" transform="translate(0,0)"/>
    <path d="" fill="#000000" transform="translate(0,0)"/>
    <path d="" fill="#000000" transform="translate(0,0)"/>
    <path d="" fill="#000000" transform="translate(0,0)"/>
    <path d="" fill="#000000" transform="translate(0,0)"/>
    <path d="" fill="#000000" transform="translate(0,0)"/>
    <path d="" fill="#000000" transform="translate(0,0)"/>
    <path d="" fill="#000000" transform="translate(0,0)"/>
    <path d="" fill="#000000" transform="translate(0,0)"/>
    <path d="" fill="#000000" transform="translate(0,0)"/>
    <path d="" fill="#000000" transform="translate(0,0)"/>
    <path d="" fill="#000000" transform="translate(0,0)"/>
    <path d="" fill="#000000" transform="translate(0,0)"/>
    <path d="" fill="#000000" transform="translate(0,0)"/>
    <path d="" fill="#000000" transform="translate(0,0)"/>
    <path d="" fill="#000000" transform="translate(0,0)"/>
    <path d="" fill="#000000" transform="translate(0,0)"/>
    <path d="" fill="#000000" transform="translate(0,0)"/>
    <path d="" fill="#000000" transform="translate(0,0)"/>
    <path d="" fill="#000000" transform="translate(0,0)"/>
    <path d="" fill="#000000" transform="translate(0,0)"/>
    <path d="" fill="#000000" transform="translate(0,0)"/>
    <path d="" fill="#000000" transform="translate(0,0)"/>
    <path d="" fill="#000000" transform="translate(0,0)"/>
    <path d="" fill="#000000" transform="translate(0,0)"/>
    <path d="" fill="#000000" transform="translate(0,0)"/>
    <path d="" fill="#000000" transform="translate(0,0)"/>
    <path d="" fill="#000000" transform="translate(0,0)"/>
    <path d="" fill="#000000" transform="translate(0,0)"/>
    <path d="" fill="#000000" transform="translate(0,0)"/>
    <path d="" fill="#000000" transform="translate(0,0)"/>
    <path d="" fill="#000000" transform="translate(0,0)"/>
    <path d="" fill="#000000" transform="translate(0,0)"/>
    <path d="" fill="#000000" transform="translate(0,0)"/>
    <path d="" fill="#000000" transform="translate(0,0)"/>
    <path d="" fill="#000000" transform="translate(0,0)"/>
    <path d="" fill="#000000" transform="translate(0,0)"/>
    <path d="" fill="#000000" transform="translate(0,0)"/>
    <path d="" fill="#000000" transform="translate(0,0)"/>
    <path d="" fill="#000000" transform="translate(0,0)"/>
    <path d="" fill="#000000" transform="translate(0,0)"/>
    <path d="" fill="#000000" transform="translate(0,0)"/>
    <path d="" fill="#000000" transform="translate(0,0)"/>
    <path d="" fill="#000000" transform="translate(0,0)"/>
    <path d="" fill="#000000" transform="translate(0,0)"/>
    <path d="" fill="#000000" transform="translate(0,0)"/>
    <path d="" fill="#000000" transform="translate(0,0)"/>
    <path d="" fill="#000000" transform="translate(0,0)"/>
    <path d="" fill="#000000" transform="translate(0,0)"/>
    <path d="" fill="#000000" transform="translate(0,0)"/>
    <path d="" fill="#000000" transform="translate(0,0)"/>
    <path d="" fill="#000000" transform="translate(0,0)"/>
    <path d="" fill="#000000" transform="translate(0,0)"/>
    <path d="" fill="#000000" transform="translate(0,0)"/>
    <path d="" fill="#000000" transform="translate(0,0)"/>
    <path d="" fill="#000000" transform="translate(0,0)"/>
    <path d="" fill="#000000" transform="translate(0,0)"/>
    <path d="" fill="#000000" transform="translate(0,0)"/>
    <path d="" fill="#000000" transform="translate(0,0)"/>
    <path d="" fill="#000000" transform="translate(0,0)"/>
    <path d="" fill="#000000" transform="translate(0,0)"/>
    <path d="" fill="#000000" transform="translate(0,0)"/>
    <path d="" fill="#000000" transform="translate(0,0)"/>
    <path d="" fill="#000000" transform="translate(0,0)"/>
    <path d="" fill="#000000" transform="translate(0,0)"/>
    <path d="" fill="#000000" transform="translate(0,0)"/>
    <path d="" fill="#000000" transform="translate(0,0)"/>
    <path d="" fill="#000000" transform="translate(0,0)"/>
    <path d="" fill="#000000" transform="translate(0,0)"/>
    <path d="" fill="#000000" transform="translate(0,0)"/>
    <path d="" fill="#000000" transform="translate(0,0)"/>
    <path d="" fill="#000000" transform="translate(0,0)"/>
    <path d="" fill="#000000" transform="translate(0,0)"/>
    <path d="" fill="#000000" transform="translate(0,0)"/>
    <path d="" fill="#000000" transform="translate(0,0)"/>
    <path d="" fill="#000000" transform="translate(0,0)"/>
    <path d="" fill="#000000" transform="translate(0,0)"/>
    <path d="" fill="#000000" transform="translate(0,0)"/>
    <path d="" fill="#000000" transform="translate(0,0)"/>
    <path d="" fill="#000000" transform="translate(0,0)"/>
    <path d="" fill="#000000" transform="translate(0,0)"/>
    <path d="" fill="#000000" transform="translate(0,0)"/>
    <path d="" fill="#000000" transform="translate(0,0)"/>
    <path d="" fill="#000000" transform="translate(0,0)"/>
    <path d="" fill="#000000" transform="translate(0,0)"/>
    <path d="" fill="#000000" transform="translate(0,0)"/>
    <path d="" fill="#000000" transform="translate(0,0)"/>
    <path d="" fill="#000000" transform="translate(0,0)"/>
    <path d="" fill="#000000" transform="translate(0,0)"/>
    <path d="" fill="#000000" transform="translate(0,0)"/>
    <path d="" fill="#000000" transform="translate(0,0)"/>
    <path d="" fill="#000000" transform="translate(0,0)"/>
    <path d="" fill="#000000" transform="translate(0,0)"/>
    <path d="" fill="#000000" transform="translate(0,0)"/>
    <path d="" fill="#000000" transform="translate(0,0)"/>
    <path d="" fill="#000000" transform="translate(0,0)"/>
    <path d="" fill="#000000" transform="translate(0,0)"/>
    <path d="" fill="#000000" transform="translate(0,0)"/>
    <path d="" fill="#000000" transform="translate(0,0)"/>
    <path d="" fill="#000000" transform="translate(0,0)"/>
    <path d="" fill="#000000" transform="translate(0,0)"/>
    <path d="" fill="#000000" transform="translate(0,0)"/>
    <path d="" fill="#000000" transform="translate(0,0)"/>
    <path d="" fill="#000000" transform="translate(0,0)"/>
    <path d="" fill="#000000" transform="translate(0,0)"/>
    <path d="" fill="#000000" transform="translate(0,0)"/>
    <path d="" fill="#000000" transform="translate(0,0)"/>
    <path d="" fill="#000000" transform="translate(0,0)"/>
    <path d="" fill="#000000" transform="translate(0,0)"/>
    <path d="" fill="#000000" transform="translate(0,0)"/>
    <path d="" fill="#000000" transform="translate(0,0)"/>
    <path d="" fill="#000000" transform="translate(0,0)"/>
    <path d="" fill="#000000" transform="translate(0,0)"/>
    <path d="" fill="#000000" transform="translate(0,0)"/>
    <path d="" fill="#000000" transform="translate(0,0)"/>
    <path d="" fill="#000000" transform="translate(0,0)"/>
    <path d="" fill="#000000" transform="translate(0,0)"/>
    <path d="" fill="#000000" transform="translate(0,0)"/>
    <path d="" fill="#000000" transform="translate(0,0)"/>
    <path d="" fill="#000000" transform="translate(0,0)"/>
    <path d="" fill="#000000" transform="translate(0,0)"/>
    <path d="" fill="#000000" transform="translate(0,0)"/>
    <path d="" fill="#000000" transform="translate(0,0)"/>
    <path d="" fill="#000000" transform="translate(0,0)"/>
    <path d="" fill="#000000" transform="translate(0,0)"/>
    <path d="" fill="#000000" transform="translate(0,0)"/>
    <path d="" fill="#000000" transform="translate(0,0)"/>
    <path d="" fill="#000000" transform="translate(0,0)"/>
    <path d="" fill="#000000" transform="translate(0,0)"/>
    <path d="" fill="#000000" transform="translate(0,0)"/>
    <path d="" fill="#000000" transform="translate(0,0)"/>
    <path d="" fill="#000000" transform="translate(0,0)"/>
    <path d="" fill="#000000" transform="translate(0,0)"/>
    <path d="" fill="#000000" transform="translate(0,0)"/>
    <path d="" fill="#000000" transform="translate(0,0)"/>
    <path d="" fill="#000000" transform="translate(0,0)"/>
    <path d="" fill="#000000" transform="translate(0,0)"/>
    <path d="" fill="#000000" transform="translate(0,0)"/>
    <path d="" fill="#000000" transform="translate(0,0)"/>
    <path d="" fill="#000000" transform="translate(0,0)"/>
    <path d="" fill="#000000" transform="translate(0,0)"/>
    <path d="" fill="#000000" transform="translate(0,0)"/>
    <path d="" fill="#000000" transform="translate(0,0)"/>
    <path d="" fill="#000000" transform="translate(0,0)"/>
    <path d="" fill="#000000" transform="translate(0,0)"/>
    <path d="" fill="#000000" transform="translate(0,0)"/>
    <path d="" fill="#000000" transform="translate(0,0)"/>
    <path d="" fill="#000000" transform="translate(0,0)"/>
    <path d="" fill="#000000" transform="translate(0,0)"/>
    <path d="" fill="#000000" transform="translate(0,0)"/>
    <path d="" fill="#000000" transform="translate(0,0)"/>
    <path d="" fill="#000000" transform="translate(0,0)"/>
    <path d="" fill="#000000" transform="translate(0,0)"/>
    <path d="" fill="#000000" transform="translate(0,0)"/>
    <path d="" fill="#000000" transform="translate(0,0)"/>
    <path d="" fill="#000000" transform="translate(0,0)"/>
    <path d="" fill="#000000" transform="translate(0,0)"/>
    <path d="" fill="#000000" transform="translate(0,0)"/>
    <path d="" fill="#000000" transform="translate(0,0)"/>
    <path d="" fill="#000000" transform="translate(0,0)"/>
    <path d="" fill="#000000" transform="translate(0,0)"/>
    <path d="" fill="#000000" transform="translate(0,0)"/>
    <path d="" fill="#000000" transform="translate(0,0)"/>
    <path d="" fill="#000000" transform="translate(0,0)"/>
    <path d="" fill="#000000" transform="translate(0,0)"/>
    <path d="" fill="#000000" transform="translate(0,0)"/>
    <path d="" fill="#000000" transform="translate(0,0)"/>
    <path d="" fill="#000000" transform="translate(0,0)"/>
    <path d="" fill="#000000" transform="translate(0,0)"/>
    <path d="" fill="#000000" transform="translate(0,0)"/>
    <path d="" fill="#000000" transform="translate(0,0)"/>
    <path d="" fill="#000000" transform="translate(0,0)"/>
    <path d="" fill="#000000" transform="translate(0,0)"/>
    <path d="" fill="#000000" transform="translate(0,0)"/>
    <path d="" fill="#000000" transform="translate(0,0)"/>
    <path d="" fill="#000000" transform="translate(0,0)"/>
    <path d="" fill="#000000" transform="translate(0,0)"/>
    <path d="" fill="#000000" transform="translate(0,0)"/>
    <path d="" fill="#000000" transform="translate(0,0)"/>
    <path d="" fill="#000000" transform="translate(0,0)"/>
    <path d="" fill="#000000" transform="translate(0,0)"/>
    <path d="" fill="#000000" transform="translate(0,0)"/>
    <path d="" fill="#000000" transform="translate(0,0)"/>
    <path d="" fill="#000000" transform="translate(0,0)"/>
    <path d="" fill="#000000" transform="translate(0,0)"/>
    <path d="" fill="#000000" transform="translate(0,0)"/>
    <path d="" fill="#000000" transform="translate(0,0)"/>
    <path d="" fill="#000000" transform="translate(0,0)"/>
    <path d="" fill="#000000" transform="translate(0,0)"/>
    <path d="" fill="#000000" transform="translate(0,0)"/>
    <path d="" fill="#000000" transform="translate(0,0)"/>
    <path d="" fill="#000000" transform="translate(0,0)"/>
    <path d="" fill="#000000" transform="translate(0,0)"/>
    <path d="" fill="#000000" transform="translate(0,0)"/>
    <path d="" fill="#000000" transform="translate(0,0)"/>
    <path d="" fill="#000000" transform="translate(0,0)"/>
    <path d="" fill="#000000" transform="translate(0,0)"/>
    <path d="" fill="#000000" transform="translate(0,0)"/>
    <path d="" fill="#000000" transform="translate(0,0)"/>
    <path d="" fill="#000000" transform="translate(0,0)"/>
    <path d="" fill="#000000" transform="translate(0,0)"/>
    <path d="" fill="#000000" transform="translate(0,0)"/>
    <path d="" fill="#000000" transform="translate(0,0)"/>
    <path d="" fill="#000000" transform="translate(0,0)"/>
    <path d="" fill="#000000" transform="translate(0,0)"/>
    <path d="" fill="#000000" transform="translate(0,0)"/>
    <path d="" fill="#000000" transform="translate(0,0)"/>
    <path d="" fill="#000000" transform="translate(0,0)"/>
    <path d="" fill="#000000" transform="translate(0,0)"/>
    <path d="" fill="#000000" transform="translate(0,0)"/>
    <path d="" fill="#000000" transform="translate(0,0)"/>
    <path d="" fill="#000000" transform="translate(0,0)"/>
    <path d="" fill="#000000" transform="translate(0,0)"/>
    <path d="" fill="#000000" transform="translate(0,0)"/>
    <path d="" fill="#000000" transform="translate(0,0)"/>
    <path d="" fill="#000000" transform="translate(0,0)"/>
    <path d="" fill="#000000" transform="translate(0,0)"/>
    <path d="" fill="#000000" transform="translate(0,0)"/>
    <path d="" fill="#000000" transform="translate(0,0)"/>
    <path d="" fill="#000000" transform="translate(0,0)"/>
    <path d="" fill="#000000" transform="translate(0,0)"/>
    <path d="" fill="#000000" transform="translate(0,0)"/>
    <path d="" fill="#000000" transform="translate(0,0)"/>
    <path d="" fill="#000000" transform="translate(0,0)"/>
    <path d="" fill="#000000" transform="translate(0,0)"/>
    <path d="" fill="#000000" transform="translate(0,0)"/>
    <path d="" fill="#000000" transform="translate(0,0)"/>
    <path d="" fill="#000000" transform="translate(0,0)"/>
    <path d="" fill="#000000" transform="translate(0,0)"/>
    <path d="" fill="#000000" transform="translate(0,0)"/>
    <path d="" fill="#000000" transform="translate(0,0)"/>
    <path d="" fill="#000000" transform="translate(0,0)"/>
    <path d="" fill="#000000" transform="translate(0,0)"/>
    <path d="" fill="#000000" transform="translate(0,0)"/>
    <path d="" fill="#000000" transform="translate(0,0)"/>
    <path d="" fill="#000000" transform="translate(0,0)"/>
    <path d="" fill="#000000" transform="translate(0,0)"/>
    <path d="" fill="#000000" transform="translate(0,0)"/>
    <path d="" fill="#000000" transform="translate(0,0)"/>
    <path d="" fill="#000000" transform="translate(0,0)"/>
    <path d="" fill="#000000" transform="translate(0,0)"/>
    <path d="" fill="#000000" transform="translate(0,0)"/>
    <path d="" fill="#000000" transform="translate(0,0)"/>
    <path d="" fill="#000000" transform="translate(0,0)"/>
    <path d="" fill="#000000" transform="translate(0,0)"/>
    <path d="" fill="#000000" transform="translate(0,0)"/>
    <path d="" fill="#000000" transform="translate(0,0)"/>
    <path d="" fill="#000000" transform="translate(0,0)"/>
    <path d="" fill="#000000" transform="translate(0,0)"/>
    <path d="" fill="#000000" transform="translate(0,0)"/>
    <path d="" fill="#000000" transform="translate(0,0)"/>
    <path d="" fill="#000000" transform="translate(0,0)"/>
    <path d="" fill="#000000" transform="translate(0,0)"/>
    <path d="" fill="#000000" transform="translate(0,0)"/>
    <path d="" fill="#000000" transform="translate(0,0)"/>
    <path d="" fill="#000000" transform="translate(0,0)"/>
    <path d="" fill="#000000" transform="translate(0,0)"/>
    <path d="" fill="#000000" transform="translate(0,0)"/>
    <path d="" fill="#000000" transform="translate(0,0)"/>
    <path d="" fill="#000000" transform="translate(0,0)"/>
    <path d="" fill="#000000" transform="translate(0,0)"/>
    <path d="" fill="#000000" transform="translate(0,0)"/>
    <path d="" fill="#000000" transform="translate(0,0)"/>
    <path d="" fill="#000000" transform="translate(0,0)"/>
    <path d="" fill="#000000" transform="translate(0,0)"/>
    <path d="" fill="#000000" transform="translate(0,0)"/>
    <path d="" fill="#000000" transform="translate(0,0)"/>
    <path d="" fill="#000000" transform="translate(0,0)"/>
    <path d="" fill="#000000" transform="translate(0,0)"/>
    <path d="" fill="#000000" transform="translate(0,0)"/>
    <path d="" fill="#000000" transform="translate(0,0)"/>
    <path d="" fill="#000000" transform="translate(0,0)"/>
    <path d="" fill="#000000" transform="translate(0,0)"/>
    <path d="" fill="#000000" transform="translate(0,0)"/>
    <path d="" fill="#000000" transform="translate(0,0)"/>
    <path d="" fill="#000000" transform="translate(0,0)"/>
    <path d="" fill="#000000" transform="translate(0,0)"/>
    <path d="" fill="#000000" transform="translate(0,0)"/>
    <path d="" fill="#000000" transform="translate(0,0)"/>
    <path d="" fill="#000000" transform="translate(0,0)"/>
    <path d="" fill="#000000" transform="translate(0,0)"/>
    <path d="" fill="#000000" transform="translate(0,0)"/>
    <path d="" fill="#000000" transform="translate(0,0)"/>
    <path d="" fill="#000000" transform="translate(0,0)"/>
    <path d="" fill="#000000" transform="translate(0,0)"/>
    <path d="" fill="#000000" transform="translate(0,0)"/>
    <path d="" fill="#000000" transform="translate(0,0)"/>
    <path d="" fill="#000000" transform="translate(0,0)"/>
    <path d="" fill="#000000" transform="translate(0,0)"/>
    <path d="" fill="#000000" transform="translate(0,0)"/>
    <path d="" fill="#000000" transform="translate(0,0)"/>
  </g>
</svg>
