<?xml version='1.0' encoding='utf-8'?>
<svg xmlns="http://www.w3.org/2000/svg" viewBox="0 0 81.2265 94.4701" width="81.2265" height="94.4701">
  <g transform="translate(-12.2965,-692.766)">
    <path d="M0 0 C4.67191762 4.06253706 8.18209371 8.03152133 9.875 14.0625 C9.875 18.01145054 9.16338718 20.78641342 7.875 24.5 C7.215 24.5 6.555 24.5 5.875 24.5 C5.38 25.985 5.38 25.985 4.875 27.5 C4.215 27.5 3.555 27.5 2.875 27.5 C2.875 28.16 2.875 28.82 2.875 29.5 C1.885 29.5 0.895 29.5 -0.125 29.5 C-0.125 30.16 -0.125 30.82 -0.125 31.5 C-1.625 33.125 -1.625 33.125 -3.125 34.5 C0.03793583 44.06168619 3.19290684 51.90520637 11.9375 57.4375 C14.92823178 58.51925405 17.72068834 59.12448671 20.875 59.5 C21.205 58.51 21.535 57.52 21.875 56.5 C26.58282038 53.75377145 30.26384985 52.93929197 35.66796875 53.8046875 C41.09214955 55.51354446 44.56375972 59.51516164 47.375 64.3125 C49.39799129 68.87295019 49.1841559 72.74988703 47.875 77.5 C45.34250838 83.95785363 39.97407128 85.67689661 33.96875 88.30078125 C25.94636837 91.41046706 17.27224659 91.73624244 9.13671875 88.68359375 C4.55724769 86.28708299 0.76902052 82.85891505 -3.125 79.5 C-3.95902344 78.85804688 -4.79304688 78.21609375 -5.65234375 77.5546875 C-17.95381632 67.33261076 -28.06891436 50.21260194 -31.125 34.5 C-31.82847935 25.03008564 -30.798049 17.39293774 -25.125 9.5 C-24.465 9.5 -23.805 9.5 -23.125 9.5 C-22.86589844 8.90574219 -22.60679688 8.31148437 -22.33984375 7.69921875 C-21.03695824 5.34061893 -19.74434696 4.03317412 -17.6875 2.3125 C-17.09066406 1.80332031 -16.49382813 1.29414062 -15.87890625 0.76953125 C-11.03888075 -2.73382796 -5.14469929 -2.46945566 0 0 Z M-12.125 8.5 C-12.125 9.16 -12.125 9.82 -12.125 10.5 C-12.72957031 10.74878906 -13.33414062 10.99757813 -13.95703125 11.25390625 C-16.46943848 12.69797455 -17.35079242 13.96135813 -18.8125 16.4375 C-19.22886719 17.12714844 -19.64523438 17.81679688 -20.07421875 18.52734375 C-23.27837065 24.54257315 -23.01363412 31.24433151 -21.25390625 37.69140625 C-16.71759292 50.05100092 -10.28338521 60.09717391 -1.125 69.5 C-0.50367187 70.17160156 0.11765625 70.84320312 0.7578125 71.53515625 C6.45910809 77.55603119 12.51317022 81.51499121 21 81.8125 C27.55501625 81.73665684 33.23346809 79.34292924 38.5625 75.625 C40.12347585 73.49955088 40.12347585 73.49955088 39.9375 70.5625 C38.60858488 66.7320976 37.11228965 64.92796724 33.875 62.5 C30.31885901 62.40641734 28.59535993 63.67411551 25.5625 65.5625 C21.70364062 67.82458998 18.26476448 68.39377187 13.875 67.5 C5.50117386 64.60188154 -1.19994088 59.4915188 -5.6953125 51.8203125 C-8.33352421 46.37805863 -9.78361061 41.53121262 -10.125 35.5 C-9.135 35.17 -8.145 34.84 -7.125 34.5 C-7.785 33.51 -8.445 32.52 -9.125 31.5 C-9.25 28.6875 -9.25 28.6875 -8.125 25.5 C-6.15881516 23.79119128 -4.13870737 22.38366502 -1.9375 20.9921875 C0.00097711 19.63332441 0.00097711 19.63332441 0.703125 17.515625 C0.98044438 14.26342503 -0.46767894 12.22274174 -2.125 9.5 C-5.66942593 7.13704938 -8.22715986 6.55107993 -12.125 8.5 Z " fill="#DDDDDD" transform="translate(44.125,695.5)"/>
    <path d="M0 0 C1.8125 1.375 1.8125 1.375 2.6171875 3.21875 C2.8125 5.375 2.8125 5.375 1.58984375 7.3046875 C0.98269531 7.94664062 0.37554687 8.58859375 -0.25 9.25 C-0.89195313 9.93835938 -1.53390625 10.62671875 -2.1953125 11.3359375 C-2.85273437 12.00882813 -3.51015625 12.68171875 -4.1875 13.375 C-4.78304687 13.98601563 -5.37859375 14.59703125 -5.9921875 15.2265625 C-7.37619663 16.62381573 -8.77979185 18.00162619 -10.1875 19.375 C-9.053125 19.684375 -7.91875 19.99375 -6.75 20.3125 C-3.1875 21.375 -3.1875 21.375 -2.1875 22.375 C-2.0625 25.375 -2.0625 25.375 -2.1875 28.375 C-4.60566166 30.79316166 -10.87527819 29.56047019 -14.125 29.5625 C-15.15302734 29.57474609 -16.18105469 29.58699219 -17.24023438 29.59960938 C-18.71266602 29.60250977 -18.71266602 29.60250977 -20.21484375 29.60546875 C-21.57210571 29.61163208 -21.57210571 29.61163208 -22.95678711 29.61791992 C-25.1875 29.375 -25.1875 29.375 -27.1875 27.375 C-27.43041992 25.14428711 -27.43041992 25.14428711 -27.41796875 22.40234375 C-27.41603516 21.42072266 -27.41410156 20.43910156 -27.41210938 19.42773438 C-27.39986328 18.39970703 -27.38761719 17.37167969 -27.375 16.3125 C-27.37435547 15.28060547 -27.37371094 14.24871094 -27.37304688 13.18554688 C-27.32765997 5.51515997 -27.32765997 5.51515997 -26.1875 4.375 C-23.25 4.125 -23.25 4.125 -20.1875 4.375 C-18.2424 7.29265 -17.73473683 9.00037285 -17.1875 12.375 C-16.43984375 11.60414063 -15.6921875 10.83328125 -14.921875 10.0390625 C-13.92735349 9.02577644 -12.93254677 8.01277025 -11.9375 7 C-11.44636719 6.49210938 -10.95523438 5.98421875 -10.44921875 5.4609375 C-3.94720262 -1.12777218 -3.94720262 -1.12777218 0 0 Z " fill="#E8E8E8" transform="translate(88.1875,706.625)"/>
    <path d="M0 0 C1.4540625 0.0309375 1.4540625 0.0309375 2.9375 0.0625 C1.97070312 0.50529297 1.97070312 0.50529297 0.984375 0.95703125 C-2.30296816 4.33847774 -1.73936525 8.20567276 -1.8125 12.75 C-1.85697266 14.08901367 -1.85697266 14.08901367 -1.90234375 15.45507812 C-1.97301427 17.65764277 -2.02571939 19.85915131 -2.0625 22.0625 C-2.7225 22.3925 -3.3825 22.7225 -4.0625 23.0625 C-4.09137512 19.41668313 -4.10925585 15.77089537 -4.125 12.125 C-4.13337891 11.08408203 -4.14175781 10.04316406 -4.15039062 8.97070312 C-4.15522461 7.48666992 -4.15522461 7.48666992 -4.16015625 5.97265625 C-4.16539307 5.05621338 -4.17062988 4.13977051 -4.17602539 3.19555664 C-3.99424846 -0.21989513 -3.49289968 0.07128367 0 0 Z " fill="#929292" transform="translate(65.0625,710.9375)"/>
  </g>
</svg>
