<?xml version='1.0' encoding='utf-8'?>
<svg xmlns="http://www.w3.org/2000/svg" viewBox="0 0 76.2152 78.894" width="76.2152" height="78.894">
  <g transform="translate(-19.3313,-464.047)">
    <path d="M0 0 C1.75258349 1.25664859 3.14641629 2.60206503 4.62890625 4.16796875 C5.60150391 5.09029297 5.60150391 5.09029297 6.59375 6.03125 C15.43210948 15.31067924 19.17536386 25.62011459 19.04443359 38.2199707 C18.59888566 49.84658502 13.54120887 56.08271963 5.62890625 64.16796875 C4.88640625 65.11671875 4.14390625 66.06546875 3.37890625 67.04296875 C-5.58829319 73.97216832 -17.54938047 74.1089873 -28.37109375 73.16796875 C-34.5817884 72.05739062 -38.21298804 70.01909208 -42.37109375 65.16796875 C-43.17546875 64.42546875 -43.97984375 63.68296875 -44.80859375 62.91796875 C-54.02755318 53.02445132 -57.03980325 43.23426186 -56.71484375 29.7890625 C-55.92709994 21.49089762 -52.71336902 15.90299377 -47.04296875 9.9296875 C-45.183738 8.03845142 -45.183738 8.03845142 -43.12109375 5.16796875 C-42.54359375 4.50796875 -41.96609375 3.84796875 -41.37109375 3.16796875 C-40.38109375 3.16796875 -39.39109375 3.16796875 -38.37109375 3.16796875 C-38.04109375 2.50796875 -37.71109375 1.84796875 -37.37109375 1.16796875 C-35.6640625 0.3515625 -35.6640625 0.3515625 -33.55859375 -0.39453125 C-32.87152344 -0.64332031 -32.18445313 -0.89210938 -31.4765625 -1.1484375 C-21.85766371 -4.27145659 -9.07498893 -4.78499417 0 0 Z M-27.37109375 4.16796875 C-27.37109375 5.48796875 -27.37109375 6.80796875 -27.37109375 8.16796875 C-26.12972656 8.14476562 -24.88835938 8.1215625 -23.609375 8.09765625 C-21.96745395 8.07889144 -20.32552637 8.060692 -18.68359375 8.04296875 C-17.45866211 8.01783203 -17.45866211 8.01783203 -16.20898438 7.9921875 C-11.84183132 7.95682594 -8.28375547 7.97953084 -4.37109375 10.16796875 C-3.13359375 11.49828125 -3.13359375 11.49828125 -1.87109375 12.85546875 C-0.63359375 14.00015625 -0.63359375 14.00015625 0.62890625 15.16796875 C3.38907125 15.11817291 3.38907125 15.11817291 5.62890625 14.16796875 C-0.8850664 7.28176909 -8.03690754 3.66476767 -17.55859375 2.91796875 C-20.85315227 3.2108184 -24.10534299 3.64544863 -27.37109375 4.16796875 Z M-33.37109375 6.16796875 C-33.04109375 7.48796875 -32.71109375 8.80796875 -32.37109375 10.16796875 C-30.72109375 9.83796875 -29.07109375 9.50796875 -27.37109375 9.16796875 C-28.68310548 7.60547066 -28.68310548 7.60547066 -30.37109375 6.16796875 C-31.36109375 6.16796875 -32.35109375 6.16796875 -33.37109375 6.16796875 Z M-38.37109375 9.16796875 C-37.38109375 10.48796875 -36.39109375 11.80796875 -35.37109375 13.16796875 C-35.04109375 12.50796875 -34.71109375 11.84796875 -34.37109375 11.16796875 C-34.70109375 10.50796875 -35.03109375 9.84796875 -35.37109375 9.16796875 C-36.36109375 9.16796875 -37.35109375 9.16796875 -38.37109375 9.16796875 Z M-41.37109375 12.16796875 C-41.04109375 13.81796875 -40.71109375 15.46796875 -40.37109375 17.16796875 C-39.71109375 16.50796875 -39.05109375 15.84796875 -38.37109375 15.16796875 C-39.36109375 14.17796875 -40.35109375 13.18796875 -41.37109375 12.16796875 Z M-20.37109375 11.16796875 C-20.37109375 13.14796875 -20.37109375 15.12796875 -20.37109375 17.16796875 C-21.36109375 16.83796875 -22.35109375 16.50796875 -23.37109375 16.16796875 C-24.05859375 14.10546875 -24.05859375 14.10546875 -24.37109375 12.16796875 C-30.45708171 14.08985969 -35.04725296 16.37700943 -39.37109375 21.16796875 C-40.83534908 23.85276751 -40.83534908 23.85276751 -41.37109375 26.16796875 C-40.73171875 26.43609375 -40.09234375 26.70421875 -39.43359375 26.98046875 C-37.37109375 28.16796875 -37.37109375 28.16796875 -36.37109375 31.16796875 C-37.34046875 30.98234375 -38.30984375 30.79671875 -39.30859375 30.60546875 C-40.31921875 30.46109375 -41.32984375 30.31671875 -42.37109375 30.16796875 C-43.59239742 31.16032804 -43.59239742 31.16032804 -43.42578125 33.1015625 C-42.87821181 40.73182368 -40.8994229 47.50084404 -35.484375 53.12890625 C-33.84090288 54.54902618 -32.11281227 55.87021769 -30.37109375 57.16796875 C-29.92121094 56.69746094 -29.47132812 56.22695313 -29.0078125 55.7421875 C-27.2509256 54.05238936 -25.58344443 53.15971216 -23.37109375 52.16796875 C-22.38109375 52.82796875 -21.39109375 53.48796875 -20.37109375 54.16796875 C-20.70109375 55.81796875 -21.03109375 57.46796875 -21.37109375 59.16796875 C-17.90609375 58.67296875 -17.90609375 58.67296875 -14.37109375 58.16796875 C-14.86609375 55.69296875 -14.86609375 55.69296875 -15.37109375 53.16796875 C-12.37109375 55.16796875 -12.37109375 55.16796875 -11.37109375 57.16796875 C-5.77826533 55.80386426 -2.45915564 53.01413349 1.62890625 49.16796875 C1.28445744 46.6953011 1.28445744 46.6953011 0.62890625 44.16796875 C-0.36109375 43.67296875 -0.36109375 43.67296875 -1.37109375 43.16796875 C-1.37109375 42.17796875 -1.37109375 41.18796875 -1.37109375 40.16796875 C-0.38109375 39.83796875 0.60890625 39.50796875 1.62890625 39.16796875 C2.12390625 40.15796875 2.12390625 40.15796875 2.62890625 41.16796875 C3.28890625 41.49796875 3.94890625 41.82796875 4.62890625 42.16796875 C6.07297619 34.02866546 5.63599653 27.60089285 0.890625 20.60546875 C-3.1055751 15.76347096 -6.09755627 13.02904252 -12.37109375 12.16796875 C-13.36109375 12.16796875 -14.35109375 12.16796875 -15.37109375 12.16796875 C-15.70109375 14.14796875 -16.03109375 16.12796875 -16.37109375 18.16796875 C-17.03109375 17.83796875 -17.69109375 17.50796875 -18.37109375 17.16796875 C-18.99609375 14.10546875 -18.99609375 14.10546875 -19.37109375 11.16796875 C-19.70109375 11.16796875 -20.03109375 11.16796875 -20.37109375 11.16796875 Z M-45.37109375 16.16796875 C-45.70109375 16.82796875 -46.03109375 17.48796875 -46.37109375 18.16796875 C-45.71109375 18.16796875 -45.05109375 18.16796875 -44.37109375 18.16796875 C-44.70109375 17.50796875 -45.03109375 16.84796875 -45.37109375 16.16796875 Z M6.62890625 17.16796875 C5.63890625 18.15796875 4.64890625 19.14796875 3.62890625 20.16796875 C3.90605469 20.73644531 4.18320313 21.30492187 4.46875 21.890625 C6.73827408 26.72850728 8.17545809 30.83995287 8.62890625 36.16796875 C11.10390625 37.15796875 11.10390625 37.15796875 13.62890625 38.16796875 C13.35684027 30.89020375 12.51380436 24.47176568 8.62890625 18.16796875 C7.96890625 17.83796875 7.30890625 17.50796875 6.62890625 17.16796875 Z M-44.37109375 18.16796875 C-43.38109375 19.65296875 -43.38109375 19.65296875 -42.37109375 21.16796875 C-42.04109375 20.17796875 -41.71109375 19.18796875 -41.37109375 18.16796875 C-42.36109375 18.16796875 -43.35109375 18.16796875 -44.37109375 18.16796875 Z M-48.37109375 21.16796875 C-50.94368257 27.9210144 -52.66212456 34.00849747 -50.37109375 41.16796875 C-48.72109375 41.16796875 -47.07109375 41.16796875 -45.37109375 41.16796875 C-45.38269531 40.2759375 -45.39429688 39.38390625 -45.40625 38.46484375 C-45.41527344 37.294375 -45.42429687 36.12390625 -45.43359375 34.91796875 C-45.44519531 33.7578125 -45.45679688 32.59765625 -45.46875 31.40234375 C-45.38891467 28.75819747 -45.15753153 26.66970784 -44.37109375 24.16796875 C-45.69109375 23.17796875 -47.01109375 22.18796875 -48.37109375 21.16796875 Z M8.62890625 40.16796875 C8.20738281 41.01101563 7.78585938 41.8540625 7.3515625 42.72265625 C5.44401042 46.53776042 3.53645833 50.35286458 1.62890625 54.16796875 C3.60890625 55.15796875 3.60890625 55.15796875 5.62890625 56.16796875 C9.65085079 51.45258549 12.62890625 47.50593936 12.62890625 41.16796875 C11.30890625 40.83796875 9.98890625 40.50796875 8.62890625 40.16796875 Z M-49.37109375 45.16796875 C-48.38109375 46.65296875 -48.38109375 46.65296875 -47.37109375 48.16796875 C-46.38109375 47.83796875 -45.39109375 47.50796875 -44.37109375 47.16796875 C-45.03109375 48.81796875 -45.69109375 50.46796875 -46.37109375 52.16796875 C-45.05109375 53.48796875 -43.73109375 54.80796875 -42.37109375 56.16796875 C-41.38109375 55.17796875 -40.39109375 54.18796875 -39.37109375 53.16796875 C-40.85222289 50.34436937 -42.35837536 47.64850817 -44.37109375 45.16796875 C-47.08767632 44.49642191 -47.08767632 44.49642191 -49.37109375 45.16796875 Z M1.62890625 45.16796875 C2.62890625 47.16796875 2.62890625 47.16796875 2.62890625 47.16796875 Z M-24.37109375 53.16796875 C-23.37109375 56.16796875 -23.37109375 56.16796875 -23.37109375 56.16796875 Z M-39.37109375 54.16796875 C-39.04109375 56.47796875 -38.71109375 58.78796875 -38.37109375 61.16796875 C-37.38109375 61.49796875 -36.39109375 61.82796875 -35.37109375 62.16796875 C-34.71109375 62.82796875 -34.05109375 63.48796875 -33.37109375 64.16796875 C-26.74788185 67.01006535 -21.41142942 67.41706056 -14.37109375 66.16796875 C-14.04109375 65.17796875 -13.71109375 64.18796875 -13.37109375 63.16796875 C-14.39589844 63.11898437 -15.42070313 63.07 -16.4765625 63.01953125 C-17.83726435 62.94445804 -19.19794019 62.8689122 -20.55859375 62.79296875 C-21.56889648 62.7465625 -21.56889648 62.7465625 -22.59960938 62.69921875 C-27.32194225 62.42278951 -31.42353096 62.06635066 -34.91796875 58.66015625 C-35.315 58.12648438 -35.71203125 57.5928125 -36.12109375 57.04296875 C-36.86359375 56.09421875 -37.60609375 55.14546875 -38.37109375 54.16796875 C-38.70109375 54.16796875 -39.03109375 54.16796875 -39.37109375 54.16796875 Z M-0.37109375 55.16796875 C-1.36109375 56.65296875 -1.36109375 56.65296875 -2.37109375 58.16796875 C-0.39109375 59.15796875 -0.39109375 59.15796875 1.62890625 60.16796875 C1.62890625 59.17796875 1.62890625 58.18796875 1.62890625 57.16796875 C0.96890625 56.50796875 0.30890625 55.84796875 -0.37109375 55.16796875 Z M-25.37109375 56.16796875 C-24.37109375 59.16796875 -24.37109375 59.16796875 -24.37109375 59.16796875 Z M-4.37109375 59.16796875 C-5.36109375 59.82796875 -6.35109375 60.48796875 -7.37109375 61.16796875 C-4.89609375 61.66296875 -4.89609375 61.66296875 -2.37109375 62.16796875 C-3.03109375 61.17796875 -3.69109375 60.18796875 -4.37109375 59.16796875 Z M-13.37109375 63.16796875 C-10.89609375 64.15796875 -10.89609375 64.15796875 -8.37109375 65.16796875 C-8.04109375 63.84796875 -7.71109375 62.52796875 -7.37109375 61.16796875 C-10.55599382 60.89061865 -10.55599382 60.89061865 -13.37109375 63.16796875 Z " fill="#D3D3D3" transform="translate(76.37109375,468.83203125)"/>
    <path d="M0 0 C0.99 0.33 1.98 0.66 3 1 C3.33 1.99 3.66 2.98 4 4 C2.7421875 5.8671875 2.7421875 5.8671875 0.875 7.875 C0.22917969 8.58011719 -0.41664062 9.28523438 -1.08203125 10.01171875 C-2.62129751 11.60741432 -4.20954877 13.15579104 -5.8125 14.6875 C-8.14341094 16.84996481 -8.14341094 16.84996481 -9 19.6875 C-10 22 -10 22 -12.4375 23.4375 C-13.283125 23.623125 -14.12875 23.80875 -15 24 C-15.99 23.34 -16.98 22.68 -18 22 C-18.29296875 19.8359375 -18.29296875 19.8359375 -18.1875 17.375 C-18.16042969 16.55773437 -18.13335937 15.74046875 -18.10546875 14.8984375 C-18.07066406 14.27195312 -18.03585938 13.64546875 -18 13 C-16.96746094 12.78601563 -15.93492188 12.57203125 -14.87109375 12.3515625 C-10.4974859 11.10196026 -8.07919398 8.66290437 -5.0625 5.375 C-4.56943359 4.859375 -4.07636719 4.34375 -3.56835938 3.8125 C-2.36704686 2.55287135 -1.18179263 1.2779602 0 0 Z M-15 17 C-14 19 -14 19 -14 19 Z M-13 17 C-12 19 -12 19 -12 19 Z " fill="#DADADA" transform="translate(71,486)"/>
    <path d="M0 0 C0.70189453 0.00451172 1.40378906 0.00902344 2.12695312 0.01367188 C3.85550538 0.02543073 5.58401365 0.04336546 7.3125 0.0625 C7.9725 2.3725 8.6325 4.6825 9.3125 7.0625 C6.6725 6.4025 4.0325 5.7425 1.3125 5.0625 C1.3125 7.0425 1.3125 9.0225 1.3125 11.0625 C-0.0075 11.3925 -1.3275 11.7225 -2.6875 12.0625 C-3.0175 11.4025 -3.3475 10.7425 -3.6875 10.0625 C-5.71213255 9.41036708 -5.71213255 9.41036708 -7.6875 9.0625 C-7.81125 7.928125 -7.935 6.79375 -8.0625 5.625 C-8.26875 4.449375 -8.475 3.27375 -8.6875 2.0625 C-9.3475 1.7325 -10.0075 1.4025 -10.6875 1.0625 C-7.06882441 -0.1437252 -3.76243749 -0.04566918 0 0 Z " fill="#B9B9B9" transform="translate(59.6875,475.9375)"/>
    <path d="M0 0 C0.66 0.33 1.32 0.66 2 1 C2.625 4.0625 2.625 4.0625 3 7 C0.36 6.34 -2.28 5.68 -5 5 C-4.01 4.67 -3.02 4.34 -2 4 C-2 3.34 -2 2.68 -2 2 C-1.34 2 -0.68 2 0 2 C0 1.34 0 0.68 0 0 Z " fill="#898989" transform="translate(66,476)"/>
    <path d="M0 0 C1.32 0 2.64 0 4 0 C4.33 1.32 4.66 2.64 5 4 C3.02 4 1.04 4 -1 4 C-0.67 2.68 -0.34 1.36 0 0 Z " fill="#ADADAD" transform="translate(36,497)"/>
    <path d="M0 0 C1.65 0 3.3 0 5 0 C5 1.65 5 3.3 5 5 C3.68 4.67 2.36 4.34 1 4 C0.67 2.68 0.34 1.36 0 0 Z " fill="#828282" transform="translate(38,515)"/>
    <path d="M0 0 C1.32 0.33 2.64 0.66 4 1 C4 1.99 4 2.98 4 4 C2.02 4 0.04 4 -2 4 C-1.34 2.68 -0.68 1.36 0 0 Z " fill="#707070" transform="translate(41,490)"/>
    <path d="M0 0 C1.65 0 3.3 0 5 0 C5 1.65 5 3.3 5 5 C3.35 4.67 1.7 4.34 0 4 C0 2.68 0 1.36 0 0 Z " fill="#6A6A6A" transform="translate(46,488)"/>
    <path d="M0 0 C0.99 0.33 1.98 0.66 3 1 C3 2.32 3 3.64 3 5 C1.68 4.67 0.36 4.34 -1 4 C-0.67 2.68 -0.34 1.36 0 0 Z " fill="#929292" transform="translate(37,502)"/>
    <path d="M0 0 C0 0.99 0 1.98 0 3 C-0.66 2.67 -1.32 2.34 -2 2 C-1.34 1.34 -0.68 0.68 0 0 Z " fill="#000000" transform="translate(85,530)"/>
    <path d="M0 0 C0.33 0.66 0.66 1.32 1 2 C0.34 1.67 -0.32 1.34 -1 1 C-0.67 0.67 -0.34 0.34 0 0 Z " fill="#000000" transform="translate(87,528)"/>
    <path d="M0 0 C0.33 0.66 0.66 1.32 1 2 C0.34 1.67 -0.32 1.34 -1 1 C-0.67 0.67 -0.34 0.34 0 0 Z " fill="#000000" transform="translate(39,489)"/>
    <path d="M0 0 C0.99 0.495 0.99 0.495 2 1 C1.01 1.495 1.01 1.495 0 2 C0 1.34 0 0.68 0 0 Z " fill="#000000" transform="translate(31,474)"/>
    <path d="M0 0 C2 1 2 1 2 1 Z " fill="#000000" transform="translate(32,519)"/>
  </g>
</svg>
