<?xml version='1.0' encoding='utf-8'?>
<svg xmlns="http://www.w3.org/2000/svg" viewBox="0 0 88.9167 88.8793" width="88.9167" height="88.8793">
  <g transform="translate(-35.0905,-2745.26)">
    <path d="M0 0 C1.4542907 1.06068654 2.89280607 2.14343482 4.3125 3.25 C5.23869141 3.94802734 5.23869141 3.94802734 6.18359375 4.66015625 C13.74502838 10.70593583 19.05080356 17.78706207 21.3125 27.25 C21.539375 28.19875 21.76625 29.1475 22 30.125 C23.31972875 43.32228752 21.662899 54.64330632 13.3125 65.25 C12.86390625 65.82621094 12.4153125 66.40242188 11.953125 66.99609375 C8.14915767 71.70409035 5.10855039 75.27086084 -0.6875 77.25 C-1.533125 77.62125 -2.37875 77.9925 -3.25 78.375 C-5.6875 79.25 -5.6875 79.25 -9.6875 79.25 C-9.6875 79.91 -9.6875 80.57 -9.6875 81.25 C-13.41289628 82.11286752 -16.86631325 82.38474793 -20.6875 82.375 C-21.698125 82.37757813 -22.70875 82.38015625 -23.75 82.3828125 C-26.50464744 82.25826727 -29.00588803 81.87110865 -31.6875 81.25 C-31.6875 80.59 -31.6875 79.93 -31.6875 79.25 C-32.57501953 79.06824219 -32.57501953 79.06824219 -33.48046875 78.8828125 C-40.77342524 77.33618225 -45.06857299 76.40856935 -49.6875 70.25 C-50.75782121 69.17439325 -51.84168458 68.1121218 -52.9375 67.0625 C-55.6875 64.25 -55.6875 64.25 -55.6875 62.25 C-56.3475 62.25 -57.0075 62.25 -57.6875 62.25 C-64.34881788 48.5716628 -65.59695979 35.85715814 -60.6875 21.25 C-55.60440291 9.65512468 -45.98230615 1.53662131 -34.375 -3.0625 C-23.13498502 -5.93785267 -10.06485116 -6.49454923 0 0 Z M-30.6875 5.25 C-30.6875 5.91 -30.6875 6.57 -30.6875 7.25 C-32.481875 7.62125 -32.481875 7.62125 -34.3125 8 C-41.91834998 9.97832302 -45.89112243 14.12170712 -50.140625 20.54296875 C-54.83884762 28.76485834 -56.1368668 37.84643396 -54.04296875 47.09765625 C-53.11814092 50.26393872 -52.16401475 53.2969705 -50.6875 56.25 C-50.0275 56.25 -49.3675 56.25 -48.6875 56.25 C-48.5225 56.930625 -48.3575 57.61125 -48.1875 58.3125 C-44.76916693 65.00673559 -39.31739584 68.35529147 -32.3125 70.6875 C-21.7178147 73.50057161 -12.79115632 72.75175426 -2.6875 68.25 C5.07661498 63.08154643 11.14511683 55.70884906 13.03125 46.44140625 C14.54775764 34.6252842 12.42497026 25.0488525 5.2734375 15.453125 C0.85943518 10.49396701 -4.00192383 7.75141821 -10.6875 7.25 C-10.6875 6.59 -10.6875 5.93 -10.6875 5.25 C-17.04087785 3.55576591 -24.33412215 3.55576591 -30.6875 5.25 Z " fill="#E7E7E7" transform="translate(100.6875,2751.75)"/>
    <path d="M0 0 C3.0625 2.25 3.0625 2.25 5 5 C5.5775 5.5775 6.155 6.155 6.75 6.75 C8.75474644 10.3585436 9.25455034 13.89370108 9 18 C7.97985765 20.8840473 6.63722971 23.42118753 5 26 C4.34 26 3.68 26 3 26 C3 26.66 3 27.32 3 28 C1.35 28.33 -0.3 28.66 -2 29 C-2 30.65 -2 32.3 -2 34 C-4.64 34 -7.28 34 -10 34 C-10.05422947 32.5629191 -10.09289723 31.12524538 -10.125 29.6875 C-10.15980469 28.48673828 -10.15980469 28.48673828 -10.1953125 27.26171875 C-10 25 -10 25 -8 22 C-7.34 22 -6.68 22 -6 22 C-6 21.34 -6 20.68 -6 20 C-4.35 19.34 -2.7 18.68 -1 18 C-1.33 15.69 -1.66 13.38 -2 11 C-4.64 11 -7.28 11 -10 11 C-10.66 12.65 -11.32 14.3 -12 16 C-14.97 16 -17.94 16 -21 16 C-20.73147898 9.55549559 -18.34253164 5.72264714 -14 1 C-9.80462512 -1.09768744 -4.55743591 -0.54835459 0 0 Z " fill="#E3E3E3" transform="translate(86,2768)"/>
    <path d="M0 0 C2.64 0 5.28 0 8 0 C8 2.97 8 5.94 8 9 C5.36 9 2.72 9 0 9 C0 6.03 0 3.06 0 0 Z " fill="#E1E1E1" transform="translate(76,2803)"/>
    <path d="M0 0 C0.99 0.495 0.99 0.495 2 1 C1.67 1.66 1.34 2.32 1 3 C0.67 2.01 0.34 1.02 0 0 Z " fill="#000000" transform="translate(57,2813)"/>
    <path d="M0 0 C0 3 0 3 0 3 Z " fill="#000000" transform="translate(102,2813)"/>
    <path d="M0 0 C2 1 2 1 2 1 Z " fill="#000000" transform="translate(74,2802)"/>
  </g>
</svg>
